<svg xmlns="http://www.w3.org/2000/svg" viewBox="0 0 160 52" width="160" height="52">
  <rect width="160" height="52" rx="8" fill="#ffffff" stroke="#dadce0" stroke-width="1.5"/>
  <g transform="translate(18, 10)">
    <!-- Pay (Dark Blue: #002970) -->
    <!-- P -->
    <path fill="#002970" d="M0 0h12.5c6.8 0 11.2 4.1 11.2 10.3 0 6.3-4.4 10.4-11.2 10.4H6.5v11.3H0V0zm11.8 15.3c3.6 0 5.7-2.1 5.7-5 0-3-2.1-5-5.7-5H6.5v10h5.3z"/>
    <!-- a -->
    <path fill="#002970" d="M38.5 10.2v21.8h-5.9v-3.7c-1.8 2.6-4.8 4.2-8.3 4.2-5.6 0-9.8-3.9-9.8-9.5 0-5.8 4.7-9.4 12.1-9.4 2.1 0 4 .3 5.8.9v-.8c0-2.9-2.3-4.7-6-4.7-2.6 0-4.9.9-6.4 2.5l-3.3-3.7c2.6-2.7 6.4-4.1 10.6-4.1 6.8 0 11.2 3.6 11.2 10.5zm-5.9 7.4c-1.4-.7-3.1-1.1-4.8-1.1-3.6 0-5.9 1.7-5.9 4.7 0 2.8 2.1 4.7 5.2 4.7 3.3 0 5.5-2.2 5.5-5.6v-2.7z"/>
    <!-- y -->
    <path fill="#002970" d="M41.5 10.8h6.5l6.5 18 6.4-18h6.5l-9.8 25.2c-1.7 4.3-4.7 6.6-8.9 6.6-1.9 0-3.6-.5-4.8-1.3l1.8-4.4c.9.5 2 .8 2.9.8 2 0 3.3-1.1 4.2-3.3l.5-1.4-11.8-24.2z"/>

    <!-- tm (Bright Cyan: #00BAF2) -->
    <!-- t -->
    <path fill="#00BAF2" d="M74.5 3.5h6.4v7.3h5.9v5.2h-5.9v10c0 2 1 2.8 2.8 2.8 1.1 0 2.2-.3 3.1-.7l.9 5c-1.6.8-3.7 1.2-5.8 1.2-5.2 0-7.4-2.8-7.4-7.4V16h-4.3v-5.2h4.3V3.5z"/>
    <!-- m -->
    <path fill="#00BAF2" d="M90.2 10.8h5.9v3.4c1.8-2.4 4.6-3.9 7.8-3.9 3.5 0 6.2 1.6 7.4 4.4 2-2.7 4.9-4.4 8.5-4.4 5.3 0 8.5 3.7 8.5 9.7v12h-6.2v-11c0-3.4-1.6-5.2-4.2-5.2-2.5 0-4.6 2-4.6 5.6v10.6H107v-11c0-3.4-1.6-5.2-4.2-5.2-2.5 0-4.6 2-4.6 5.6v10.6h-6.2V10.8h-1.8z"/>
  </g>
</svg>